IKResults
version=1
nRows=8
nColumns=63
inDegrees=yes

Units are S.I. units (second, meters, Newtons, ...)
If the header above contains a line with 'inDegrees', this indicates whether rotational values are in degrees (yes) or radians (no).

endheader
time	pelvis_tilt	pelvis_list	pelvis_rotation	pelvis_tx	pelvis_ty	pelvis_tz	hip_flexion_r	hip_adduction_r	hip_rotation_r	knee_angle_r	knee_angle_r_beta	ankle_angle_r	subtalar_angle_r	mtp_angle_r	hip_flexion_l	hip_adduction_l	hip_rotation_l	knee_angle_l	knee_angle_l_beta	ankle_angle_l	subtalar_angle_l	mtp_angle_l	L5_S1_Flex_Ext	L5_S1_Lat_Bending	L5_S1_axial_rotation	L4_L5_Flex_Ext	L4_L5_Lat_Bending	L4_L5_axial_rotation	L3_L4_Flex_Ext	L3_L4_Lat_Bending	L3_L4_axial_rotation	L2_L3_Flex_Ext	L2_L3_Lat_Bending	L2_L3_axial_rotation	L1_L2_Flex_Ext	L1_L2_Lat_Bending	L1_L2_axial_rotation	L1_T12_Flex_Ext	L1_T12_Lat_Bending	L1_T12_axial_rotation	Abs_r3	Abs_r2	Abs_r1	Abs_t1	Abs_t2	neck_flexion	neck_bending	neck_rotation	arm_flex_r	arm_add_r	arm_rot_r	elbow_flex_r	pro_sup_r	wrist_flex_r	wrist_dev_r	arm_flex_l	arm_add_l	arm_rot_l	elbow_flex_l	pro_sup_l	wrist_flex_l	wrist_dev_l
      6.03333333	     69.72815366	    -75.07553008	     30.55836988	     -0.68431875	      0.33063672	     -0.46110756	     -7.95247856	      5.35091519	     28.83887043	     31.21714849	      0.54484202	    -21.53926467	     -7.26866887	      0.00000000	     36.12708323	    -22.06609979	    -14.30317766	     50.29262556	      0.87777191	    -10.49169068	    -19.80653230	      0.00000000	     -3.78644445	     -1.09517117	      9.57678926	     -7.03180599	     -1.45657766	     10.17533859	     -6.22074959	     -2.66279918	     10.17533859	     -4.32752737	     -2.66279918	      8.37969060	     -3.51609232	     -2.23327305	      7.78114128	     -2.16357436	     -1.69642014	      7.18259195	    -27.04619408	    -12.38879532	     53.26322884	      0.00000000	      0.00000000	     28.43443552	     -1.75212694	     44.51265686	     53.19885009	     12.61847775	     58.69812840	     13.19290857	     89.99559364	      0.00000000	      0.00000000	    153.59619687	     22.89136322	    -63.09520972	     34.87885811	     89.99559364	      0.00000000	      0.00000000
      6.06666667	     69.98457737	    -74.74952814	     30.97414766	     -0.68384303	      0.33078078	     -0.46130118	     -8.11252622	      5.07160281	     28.30912757	     31.43532543	      0.54864993	    -21.61826485	     -6.94816112	      0.00000000	     35.86700843	    -21.65921059	    -14.24065436	     50.07390668	      0.87395454	    -10.16367621	    -19.80338326	      0.00000000	     -3.83349168	     -1.11920732	      9.44965126	     -7.11917740	     -1.48854574	     10.04025446	     -6.29804348	     -2.72124068	     10.04025446	     -4.38129764	     -2.72124068	      8.26844485	     -3.55978037	     -2.28228757	      7.67784165	     -2.19045715	     -1.73365214	      7.08723844	    -27.38224772	    -12.66069705	     52.55612541	      0.00000000	      0.00000000	     28.43782471	     -1.11850052	     44.50193616	     53.33761413	     13.11595993	     58.67216276	     13.19975325	     89.99559364	      0.00000000	      0.00000000	    153.82127483	     22.66266645	    -62.89476871	     34.66021715	     89.99559364	      0.00000000	      0.00000000
      6.10000000	     70.07689982	    -74.72397811	     30.90808215	     -0.68371520	      0.33106465	     -0.46115664	     -8.10952610	      5.02238530	     28.28243745	     31.53864661	      0.55045322	    -21.82768073	     -6.86054313	      0.00000000	     35.84546895	    -21.67718788	    -14.18947259	     50.08555182	      0.87415779	    -10.03429965	    -19.80326800	      0.00000000	     -3.84327004	     -1.12315766	      9.44419079	     -7.13733678	     -1.49379968	     10.03445271	     -6.31410834	     -2.73084553	     10.03445271	     -4.39247332	     -2.73084553	      8.26366694	     -3.56886056	     -2.29034309	      7.67340502	     -2.19604450	     -1.73977121	      7.08314309	    -27.45209354	    -12.70538405	     52.52575592	      0.00000000	      0.00000000	     28.43686084	     -1.09149391	     44.50808973	     53.31399490	     13.22157670	     58.67336220	     13.20932142	     89.99559364	      0.00000000	      0.00000000	    153.95124980	     22.48212792	    -62.87091244	     34.66519593	     89.99559364	      0.00000000	      0.00000000
      6.13333333	     70.15154763	    -74.70230618	     30.87180688	     -0.68359815	      0.33130517	     -0.46097921	     -8.09683410	      4.98824587	     28.22207873	     31.67793982	      0.55288435	    -21.87962232	     -6.79686799	      0.00000000	     35.80959336	    -21.68841713	    -14.15283209	     50.10212118	      0.87444698	     -9.91269787	    -19.80010356	      0.00000000	     -3.84913859	     -1.12775733	      9.42872670	     -7.14823528	     -1.49991725	     10.01802212	     -6.32374980	     -2.74202917	     10.01802212	     -4.39918050	     -2.74202917	      8.25013586	     -3.57431010	     -2.29972275	      7.66084044	     -2.19939779	     -1.74689610	      7.07154502	    -27.49401206	    -12.75741646	     52.43974929	      0.00000000	      0.00000000	     28.43654512	     -1.03189249	     44.52321101	     53.30923789	     13.38650255	     58.67353843	     13.22263716	     89.99559364	      0.00000000	      0.00000000	    154.07404251	     22.32958104	    -62.84788909	     34.61667396	     89.99559364	      0.00000000	      0.00000000
      6.16666667	     70.14050140	    -74.53432661	     30.86042131	     -0.68352005	      0.33143502	     -0.46081186	     -8.14679234	      4.78984198	     27.96628231	     31.81910771	      0.55534819	    -21.52766506	     -6.51390693	      0.00000000	     35.68216148	    -21.50842375	    -14.12891837	     50.10175827	      0.87444064	     -9.80886951	    -19.79894827	      0.00000000	     -3.86776071	     -1.14865489	      9.35346321	     -7.18281842	     -1.52771101	      9.93805466	     -6.35434408	     -2.79283950	      9.93805466	     -4.42046372	     -2.79283950	      8.18428031	     -3.59160260	     -2.34233706	      7.59968886	     -2.21003847	     -1.77926643	      7.01509741	    -27.62702801	    -12.99381387	     52.02115632	      0.00000000	      0.00000000	     28.44148391	     -0.56054724	     44.51983173	     53.44714920	     13.84718824	     58.62580831	     12.95081432	     89.99559364	      0.00000000	      0.00000000	    154.39522869	     22.02423388	    -62.83012585	     33.95374780	     89.99559364	      0.00000000	      0.00000000
      6.20000000	     70.12108172	    -74.54002714	     30.77980774	     -0.68362258	      0.33142208	     -0.46071825	     -8.17197630	      4.75125851	     27.92499348	     31.78849512	      0.55481390	    -21.40157360	     -6.55273099	      0.00000000	     35.65603046	    -21.49325234	    -14.07718807	     50.10702282	      0.87453253	     -9.67953294	    -19.79742722	      0.00000000	     -3.87104211	     -1.14917444	      9.35519247	     -7.18891230	     -1.52840201	      9.93989200	     -6.35973508	     -2.79410274	      9.93989200	     -4.42421403	     -2.79410274	      8.18579341	     -3.59464970	     -2.34339653	      7.60109388	     -2.21191346	     -1.78007121	      7.01639435	    -27.65046668	    -12.99969115	     52.03077396	      0.00000000	      0.00000000	     28.44295053	     -0.59784476	     44.53447503	     53.44964147	     13.88229609	     58.62148577	     12.92781756	     89.99559364	      0.00000000	      0.00000000	    154.49193285	     21.92042175	    -62.83900282	     33.91389021	     89.99559364	      0.00000000	      0.00000000
      6.23333333	     70.08933402	    -74.54781883	     30.71631725	     -0.68381545	      0.33117841	     -0.46068566	     -8.19565422	      4.71455020	     27.91617409	     31.74273497	      0.55401524	    -21.27316863	     -6.58615511	      0.00000000	     35.63908551	    -21.46393317	    -14.05254755	     50.10064394	      0.87442119	     -9.56513671	    -19.79318146	      0.00000000	     -3.87128380	     -1.14553142	      9.35712625	     -7.18936115	     -1.52355678	      9.94194664	     -6.36013216	     -2.78524508	      9.94194664	     -4.42449026	     -2.78524508	      8.18748547	     -3.59487414	     -2.33596766	      7.60266508	     -2.21205156	     -1.77442816	      7.01784469	    -27.65219306	    -12.95848048	     52.04152906	      0.00000000	      0.00000000	     28.44849612	     -0.61358716	     44.48987335	     53.46327623	     13.88485350	     58.61780795	     12.91782050	     89.99559364	      0.00000000	      0.00000000	    154.49555084	     21.81230444	    -62.86456031	     33.85526707	     89.99559364	      0.00000000	      0.00000000
      6.26666667	     69.71585261	    -74.48469945	     30.38399507	     -0.68391748	      0.33129481	     -0.46046786	     -8.34848311	      4.60225408	     28.11875548	     31.51160008	      0.54998117	    -20.75372406	     -6.69808660	      0.00000000	     35.58588386	    -21.25790246	    -13.91217887	     50.01910634	      0.87299809	     -9.03930041	    -19.79079704	      0.00000000	     -3.87633360	     -1.15984702	      9.35384945	     -7.19873913	     -1.54259653	      9.93846504	     -6.36842848	     -2.82005204	      9.93846504	     -4.43026167	     -2.82005204	      8.18461827	     -3.59956338	     -2.36516004	      7.60000268	     -2.21493702	     -1.79660303	      7.01538709	    -27.68826329	    -13.12042143	     52.02330451	      0.00000000	      0.00000000	     28.44622161	     -0.82216496	     44.53648396	     53.51970317	     13.94340127	     58.58640046	     12.74555132	     89.99559364	      0.00000000	      0.00000000	    154.88333553	     21.49446028	    -63.01801235	     32.76910165	     89.99559364	      0.00000000	      0.00000000
